<svg width="57" height="57" viewBox="0 0 57 57" fill="none" xmlns="http://www.w3.org/2000/svg">
<path d="M45.2341 44.7825C47.5564 42.0166 49.1946 38.7426 50.0163 35.2258C50.8379 31.7089 50.8197 28.048 49.9633 24.5395C49.1069 21.0309 47.4363 17.7734 45.0868 15.0305C42.7373 12.2877 39.7748 10.1368 36.4394 8.7518C33.1039 7.36684 29.4892 6.78681 25.8879 7.05868C22.2866 7.33055 18.7999 8.44668 15.7102 10.3167C12.6205 12.1867 10.0146 14.7581 8.10345 17.8225C6.19233 20.887 5.02972 24.3584 4.70976 27.9558L14.5678 28.8326C14.7501 26.7832 15.4124 24.8055 16.5012 23.0597C17.5899 21.3139 19.0745 19.849 20.8347 18.7836C22.5949 17.7183 24.5813 17.0824 26.6329 16.9275C28.6846 16.7726 30.7439 17.1031 32.6441 17.8921C34.5443 18.6811 36.232 19.9065 37.5705 21.4691C38.909 23.0317 39.8608 24.8875 40.3487 26.8863C40.8366 28.8851 40.8469 30.9707 40.3788 32.9743C39.9108 34.9778 38.9774 36.843 37.6545 38.4188L45.2341 44.7825Z" fill="#EBEBFF"/>
</svg>
